<svg width="512" height="512" viewBox="0 0 512 512" fill="none" xmlns="http://www.w3.org/2000/svg">
<path d="M375.086 129.789H395.06L410.342 223.628H395.596L392.915 204.994V205.262H376.158L373.477 223.628H359.803L375.086 129.789ZM391.172 192.527L384.604 146.144H384.335L377.901 192.527H391.172Z" fill="white"/>
<path d="M314.729 129.789H336.982C344.579 129.789 350.12 131.577 353.605 135.152C357.091 138.637 358.833 144.044 358.833 151.372V155.126C358.833 159.952 358.029 163.884 356.42 166.923C354.901 169.961 352.533 172.151 349.316 173.491V173.759C356.644 176.262 360.308 182.786 360.308 193.332V201.375C360.308 208.614 358.387 214.155 354.544 217.998C350.79 221.751 345.249 223.628 337.921 223.628H314.729V129.789ZM335.24 167.995C338.189 167.995 340.379 167.235 341.808 165.716C343.328 164.197 344.087 161.65 344.087 158.075V152.847C344.087 149.451 343.462 146.993 342.211 145.474C341.049 143.954 339.172 143.195 336.58 143.195H329.475V167.995H335.24ZM337.921 210.223C340.513 210.223 342.434 209.552 343.685 208.212C344.936 206.782 345.562 204.369 345.562 200.973V192.795C345.562 188.506 344.802 185.556 343.283 183.948C341.853 182.25 339.44 181.401 336.044 181.401H329.475V210.223H337.921Z" fill="white"/>
<path d="M247.832 129.789H268.879L278.263 196.951H278.531L287.915 129.789H308.962V223.628H295.02V152.579H294.752L284.027 223.628H271.694L260.97 152.579H260.702V223.628H247.832V129.789Z" fill="white"/>
<path d="M208.564 129.789H228.538L243.82 223.628H229.074L226.393 204.994V205.262H209.636L206.955 223.628H193.281L208.564 129.789ZM224.65 192.527L218.082 146.144H217.813L211.379 192.527H224.65Z" fill="white"/>
<path d="M386.788 379.97C379.639 379.97 374.232 377.959 370.567 373.938C366.903 369.827 365.071 363.973 365.071 356.376V351.014H379.013V357.449C379.013 363.526 381.56 366.565 386.654 366.565C389.156 366.565 391.033 365.85 392.284 364.42C393.625 362.9 394.295 360.487 394.295 357.181C394.295 353.248 393.402 349.808 391.614 346.859C389.827 343.82 386.52 340.2 381.694 336C375.617 330.638 371.372 325.812 368.959 321.522C366.546 317.143 365.339 312.228 365.339 306.776C365.339 299.358 367.216 293.638 370.97 289.617C374.723 285.506 380.175 283.45 387.324 283.45C394.385 283.45 399.702 285.506 403.277 289.617C406.941 293.638 408.773 299.448 408.773 307.044V310.932H394.831V306.106C394.831 302.888 394.206 300.565 392.955 299.135C391.704 297.615 389.871 296.856 387.458 296.856C382.543 296.856 380.085 299.85 380.085 305.838C380.085 309.234 380.979 312.406 382.766 315.355C384.643 318.305 387.995 321.88 392.821 326.08C398.987 331.442 403.232 336.313 405.556 340.692C407.88 345.071 409.041 350.21 409.041 356.108C409.041 363.794 407.12 369.693 403.277 373.804C399.523 377.915 394.027 379.97 386.788 379.97Z" fill="white"/>
<path d="M339.307 379.97C332.158 379.97 326.706 377.959 322.953 373.938C319.199 369.827 317.322 363.973 317.322 356.376V307.044C317.322 299.448 319.199 293.638 322.953 289.617C326.706 285.506 332.158 283.45 339.307 283.45C346.457 283.45 351.909 285.506 355.662 289.617C359.416 293.638 361.293 299.448 361.293 307.044V315.087H347.351V306.106C347.351 299.939 344.804 296.856 339.71 296.856C334.615 296.856 332.068 299.939 332.068 306.106V357.449C332.068 363.526 334.615 366.565 339.71 366.565C344.804 366.565 347.351 363.526 347.351 357.449V339.083H339.978V325.678H361.293V356.376C361.293 363.973 359.416 369.827 355.662 373.938C351.909 377.959 346.457 379.97 339.307 379.97Z" fill="white"/>
<path d="M266.422 284.791H284.922L299.266 340.96H299.534V284.791H312.671V378.63H297.523L279.828 310.127H279.56V378.63H266.422V284.791Z" fill="white"/>
<path d="M245.869 284.791H260.615V378.63H245.869V284.791Z" fill="white"/>
<path d="M194.943 284.791H216.794C224.391 284.791 229.932 286.578 233.417 290.153C236.903 293.639 238.645 299.045 238.645 306.374V312.138C238.645 321.88 235.428 328.046 228.993 330.638V330.906C232.568 331.978 235.071 334.168 236.501 337.475C238.02 340.781 238.779 345.205 238.779 350.746V367.235C238.779 369.916 238.869 372.106 239.048 373.804C239.226 375.412 239.673 377.021 240.388 378.63H225.374C224.838 377.11 224.48 375.68 224.301 374.34C224.123 372.999 224.033 370.586 224.033 367.101V349.942C224.033 345.652 223.318 342.658 221.888 340.96C220.548 339.262 218.18 338.413 214.784 338.413H209.689V378.63H194.943V284.791ZM215.052 325.007C218.001 325.007 220.19 324.248 221.62 322.729C223.14 321.209 223.899 318.662 223.899 315.087V307.848C223.899 304.452 223.274 301.995 222.023 300.475C220.861 298.956 218.984 298.196 216.392 298.196H209.689V325.007H215.052Z" fill="white"/>
<path d="M161.831 298.196H146.414V284.791H191.993V298.196H176.577V378.63H161.831V298.196Z" fill="white"/>
<path d="M123.783 379.97C116.633 379.97 111.226 377.959 107.562 373.938C103.898 369.827 102.066 363.973 102.066 356.376V351.014H116.008V357.449C116.008 363.526 118.555 366.565 123.649 366.565C126.151 366.565 128.028 365.85 129.279 364.42C130.62 362.9 131.29 360.487 131.29 357.181C131.29 353.248 130.396 349.808 128.609 346.858C126.822 343.82 123.515 340.2 118.689 336C112.612 330.638 108.367 325.812 105.954 321.522C103.541 317.143 102.334 312.227 102.334 306.776C102.334 299.358 104.211 293.638 107.964 289.617C111.718 285.506 117.17 283.45 124.319 283.45C131.379 283.45 136.697 285.506 140.272 289.617C143.936 293.638 145.768 299.448 145.768 307.044V310.932H131.826V306.106C131.826 302.888 131.201 300.565 129.95 299.135C128.698 297.615 126.866 296.856 124.453 296.856C119.538 296.856 117.08 299.85 117.08 305.838C117.08 309.234 117.974 312.406 119.761 315.355C121.638 318.305 124.99 321.879 129.816 326.08C135.982 331.442 140.227 336.313 142.551 340.692C144.874 345.071 146.036 350.21 146.036 356.108C146.036 363.794 144.115 369.693 140.272 373.804C136.518 377.915 131.022 379.97 123.783 379.97Z" fill="white"/>
<path d="M103.044 91.6673H412V97.9511H103.044V91.6673Z" fill="white"/>
<path d="M103.044 410.049H412V416.333H103.044V410.049Z" fill="white"/>
</svg>
